<svg width="1920" height="1080" viewBox="0 0 1920 1080" fill="none" xmlns="http://www.w3.org/2000/svg">
<g clip-path="url(#clip0_7_2)">
<g filter="url(#filter0_f_7_2)">
<path d="M1306.83 1634.27C1599.77 1634.27 1837.23 1473.1 1837.23 1274.27C1837.23 1075.45 1599.77 914.273 1306.83 914.273C1013.9 914.273 776.435 1075.45 776.435 1274.27C776.435 1473.1 1013.9 1634.27 1306.83 1634.27Z" fill="#FEC158"/>
<path d="M1519.42 968.445C1812.36 968.445 2049.82 807.267 2049.82 608.445C2049.82 409.622 1812.36 248.445 1519.42 248.445C1226.49 248.445 989.025 409.622 989.025 608.445C989.025 807.267 1226.49 968.445 1519.42 968.445Z" fill="#DE2BAE"/>
<path d="M791.741 1619.65C1084.67 1619.65 1322.14 1458.47 1322.14 1259.65C1322.14 1060.83 1084.67 899.65 791.741 899.65C498.809 899.65 261.341 1060.83 261.341 1259.65C261.341 1458.47 498.809 1619.65 791.741 1619.65Z" fill="#24EDFF"/>
<path d="M800.865 954.265C1093.8 954.265 1331.27 793.087 1331.27 594.265C1331.27 395.442 1093.8 234.265 800.865 234.265C507.933 234.265 270.465 395.442 270.465 594.265C270.465 793.087 507.933 954.265 800.865 954.265Z" fill="#C7FFDB"/>
<path d="M1387.06 860.367C1680 860.367 1917.46 699.19 1917.46 500.367C1917.46 301.545 1680 140.367 1387.06 140.367C1094.13 140.367 856.664 301.545 856.664 500.367C856.664 699.19 1094.13 860.367 1387.06 860.367Z" fill="#FCB1EB"/>
</g>
</g>
<g opacity="0.75" clip-path="url(#clip1_7_2)">
<g filter="url(#filter1_f_7_2)">
<path d="M613.165 -811.073C320.234 -811.073 82.7654 -534.922 82.7654 -194.273C82.7654 146.376 320.234 422.527 613.165 422.527C906.097 422.527 1143.57 146.376 1143.57 -194.273C1143.57 -534.922 906.097 -811.073 613.165 -811.073Z" fill="#FEC158"/>
<path d="M400.575 -145.245C107.643 -145.245 -129.825 130.906 -129.825 471.555C-129.825 812.204 107.643 1088.36 400.575 1088.36C693.507 1088.36 930.975 812.204 930.975 471.555C930.975 130.906 693.507 -145.245 400.575 -145.245Z" fill="#DE2BAE"/>
<path d="M1128.26 -796.45C835.327 -796.45 597.859 -520.299 597.859 -179.65C597.859 161 835.327 437.15 1128.26 437.15C1421.19 437.15 1658.66 161 1658.66 -179.65C1658.66 -520.299 1421.19 -796.45 1128.26 -796.45Z" fill="#24EDFF"/>
<path d="M1119.13 -131.065C826.203 -131.065 588.735 145.086 588.735 485.735C588.735 826.385 826.203 1102.54 1119.13 1102.54C1412.07 1102.54 1649.53 826.385 1649.53 485.735C1649.53 145.086 1412.07 -131.065 1119.13 -131.065Z" fill="#C7FFDB"/>
<path d="M532.936 -37.1674C240.005 -37.1674 2.53638 238.983 2.53638 579.633C2.53638 920.282 240.005 1196.43 532.936 1196.43C825.868 1196.43 1063.34 920.282 1063.34 579.633C1063.34 238.983 825.868 -37.1674 532.936 -37.1674Z" fill="#FCB1EB"/>
</g>
</g>
<defs>
<filter id="filter0_f_7_2" x="137.341" y="16.3674" width="2036.48" height="1741.91" filterUnits="userSpaceOnUse" color-interpolation-filters="sRGB">
<feFlood flood-opacity="0" result="BackgroundImageFix"/>
<feBlend mode="normal" in="SourceGraphic" in2="BackgroundImageFix" result="shape"/>
<feGaussianBlur stdDeviation="62" result="effect1_foregroundBlur_7_2"/>
</filter>
<filter id="filter1_f_7_2" x="-369.825" y="-1051.07" width="2268.48" height="2487.51" filterUnits="userSpaceOnUse" color-interpolation-filters="sRGB">
<feFlood flood-opacity="0" result="BackgroundImageFix"/>
<feBlend mode="normal" in="SourceGraphic" in2="BackgroundImageFix" result="shape"/>
<feGaussianBlur stdDeviation="120" result="effect1_foregroundBlur_7_2"/>
</filter>
<clipPath id="clip0_7_2">
<rect width="1920" height="1080" fill="white"/>
</clipPath>
<clipPath id="clip1_7_2">
<rect width="1920" height="1080" fill="white" transform="translate(1920 1080) rotate(-180)"/>
</clipPath>
</defs>
</svg>
